<svg xmlns="http://www.w3.org/2000/svg" width="256" height="256" viewBox="0 0 256 256">
<defs><clipPath id="clip"><circle cx="128" cy="128" r="128"/></clipPath></defs>
<circle cx="128" cy="128" r="128" fill="#1a1020"/>
<g clip-path="url(#clip)">
        <ellipse cx="128" cy="138" rx="42" ry="45" fill="#8d6e63"/>
        <polygon points="93,118 103,68 120,113" fill="#8d6e63"/>
        <polygon points="163,118 153,68 136,113" fill="#8d6e63"/>
        <polygon points="98,118 106,78 118,113" fill="#a1887f"/>
        <polygon points="158,118 150,78 138,113" fill="#a1887f"/>
        <circle cx="113" cy="128" r="7" fill="#66bb6a"/>
        <circle cx="143" cy="128" r="7" fill="#66bb6a"/>
        <circle cx="113" cy="128" r="3" fill="#222"/>
        <circle cx="143" cy="128" r="3" fill="#222"/>
        <ellipse cx="128" cy="143" rx="4" ry="3" fill="#e91e63"/>
        <line x1="124" y1="143" x2="103" y2="138" stroke="#bbb" stroke-width="1.2"/>
        <line x1="124" y1="145" x2="103" y2="148" stroke="#bbb" stroke-width="1.2"/>
        <line x1="132" y1="143" x2="153" y2="138" stroke="#bbb" stroke-width="1.2"/>
        <line x1="132" y1="145" x2="153" y2="148" stroke="#bbb" stroke-width="1.2"/></g>
</svg>