<svg xmlns="http://www.w3.org/2000/svg" width="256" height="256" viewBox="0 0 256 256">
<defs><clipPath id="clip"><circle cx="128" cy="128" r="128"/></clipPath></defs>
<circle cx="128" cy="128" r="128" fill="#1a1000"/>
<g clip-path="url(#clip)">
        <line x1="173" y1="128" x2="193" y2="128" stroke="#FFD700" stroke-width="4" stroke-linecap="round"/><line x1="166.97114317029974" y1="150.5" x2="184.29165124598853" y2="160.5" stroke="#FFD700" stroke-width="4" stroke-linecap="round"/><line x1="150.5" y1="166.97114317029974" x2="160.5" y2="184.2916512459885" stroke="#FFD700" stroke-width="4" stroke-linecap="round"/><line x1="128" y1="173" x2="128" y2="193" stroke="#FFD700" stroke-width="4" stroke-linecap="round"/><line x1="105.50000000000001" y1="166.97114317029974" x2="95.50000000000001" y2="184.29165124598853" stroke="#FFD700" stroke-width="4" stroke-linecap="round"/><line x1="89.02885682970026" y1="150.5" x2="71.70834875401148" y2="160.5" stroke="#FFD700" stroke-width="4" stroke-linecap="round"/><line x1="83" y1="128" x2="63" y2="128" stroke="#FFD700" stroke-width="4" stroke-linecap="round"/><line x1="89.02885682970026" y1="105.5" x2="71.7083487540115" y2="95.5" stroke="#FFD700" stroke-width="4" stroke-linecap="round"/><line x1="105.49999999999997" y1="89.02885682970026" x2="95.49999999999997" y2="71.7083487540115" stroke="#FFD700" stroke-width="4" stroke-linecap="round"/><line x1="127.99999999999999" y1="83" x2="127.99999999999999" y2="63" stroke="#FFD700" stroke-width="4" stroke-linecap="round"/><line x1="150.5" y1="89.02885682970026" x2="160.5" y2="71.7083487540115" stroke="#FFD700" stroke-width="4" stroke-linecap="round"/><line x1="166.97114317029974" y1="105.49999999999997" x2="184.2916512459885" y2="95.49999999999997" stroke="#FFD700" stroke-width="4" stroke-linecap="round"/>
        <circle cx="128" cy="128" r="42" fill="#FF8F00"/>
        <circle cx="128" cy="128" r="35" fill="#FFA000"/>
        <circle cx="116" cy="120" r="4" fill="#222"/>
        <circle cx="140" cy="120" r="4" fill="#222"/>
        <path d="M113 138 Q128 150 143 138" fill="none" stroke="#222" stroke-width="2.5"/></g>
</svg>